{
    "asset": {
        "version": "2.0",
        "generator": "VECTARY"
    },
    "nodes": [
        {
            "translation": [
                -1.47,
                0.58,
                1.1368683772161603e-16
            ],
            "scale": [
                0.001,
                0.001,
                0.001
            ],
            "rotation": [
                -0.7071067811865475,
                0,
                0,
                0.7071067811865476
            ],
            "name": "Point Light 1",
            "extensions": {
                "KHR_lights_punctual": {
                    "light": 0
                }
            }
        },
        {
            "translation": [
                0.51,
                0.64,
                1.1368683772161603e-16
            ],
            "scale": [
                0.001,
                0.001,
                0.001
            ],
            "rotation": [
                -0.7071067811865475,
                0,
                0,
                0.7071067811865476
            ],
            "name": "Point Light",
            "extensions": {
                "KHR_lights_punctual": {
                    "light": 1
                }
            }
        },
        {
            "translation": [
                -0.1,
                0.6743133098428283,
                1.1368683772161603e-16
            ],
            "scale": [
                0.015131574838392007,
                0.015823081600701033,
                0.018339505383068524
            ],
            "rotation": [
                -1.1102230246251565e-16,
                -0.7071067737359669,
                -5.551115123125783e-17,
                0.7071067886371278
            ],
            "name": "Plane - baked",
            "mesh": 0
        }
    ],
    "extensions": {
        "KHR_lights_punctual": {
            "lights": [
                {
                    "name": "Point Light 1",
                    "type": "point",
                    "intensity": 0.4,
                    "range": 10000,
                    "color": [
                        1,
                        1,
                        1
                    ]
                },
                {
                    "name": "Point Light",
                    "type": "point",
                    "intensity": 0.4,
                    "range": 10000,
                    "color": [
                        1,
                        1,
                        1
                    ]
                }
            ]
        }
    },
    "materials": [
        {
            "pbrMetallicRoughness": {
                "baseColorFactor": [
                    1,
                    1,
                    1,
                    1
                ],
                "baseColorTexture": {
                    "index": 0,
                    "extensions": {
                        "KHR_texture_transform": {
                            "offset": [
                                0,
                                0
                            ],
                            "scale": [
                                1,
                                1
                            ],
                            "rotation": 0
                        }
                    },
                    "texCoord": 0
                },
                "metallicFactor": 0,
                "roughnessFactor": 0.2
            },
            "name": "Coastal Calm",
            "emissiveFactor": [
                0,
                0,
                0
            ],
            "extensions": {},
            "alphaMode": "OPAQUE",
            "doubleSided": false
        }
    ],
    "textures": [
        {
            "sampler": 0,
            "source": 0
        }
    ],
    "images": [
        {
            "uri": "Mount__Launch_4.jpg",
            "mimeType": "image/jpeg"
        }
    ],
    "samplers": [
        {
            "wrapS": 10497,
            "wrapT": 10497
        }
    ],
    "meshes": [
        {
            "primitives": [
                {
                    "mode": 4,
                    "attributes": {
                        "POSITION": 1,
                        "NORMAL": 2,
                        "TEXCOORD_0": 3
                    },
                    "material": 0,
                    "indices": 0
                }
            ]
        }
    ],
    "accessors": [
        {
            "bufferView": 0,
            "byteOffset": 0,
            "componentType": 5125,
            "count": 498,
            "type": "SCALAR"
        },
        {
            "bufferView": 1,
            "byteOffset": 0,
            "componentType": 5126,
            "count": 151,
            "max": [
                46.92021560668945,
                30.81615447998047,
                20
            ],
            "min": [
                -46,
                -46.452537536621094,
                0
            ],
            "type": "VEC3"
        },
        {
            "bufferView": 2,
            "byteOffset": 0,
            "componentType": 5126,
            "count": 151,
            "type": "VEC3"
        },
        {
            "bufferView": 3,
            "byteOffset": 0,
            "componentType": 5126,
            "count": 151,
            "type": "VEC2"
        }
    ],
    "bufferViews": [
        {
            "buffer": 0,
            "byteOffset": 0,
            "byteLength": 1992,
            "target": 34963
        },
        {
            "buffer": 0,
            "byteOffset": 1992,
            "byteLength": 1812,
            "target": 34962
        },
        {
            "buffer": 0,
            "byteOffset": 3804,
            "byteLength": 1812,
            "target": 34962
        },
        {
            "buffer": 0,
            "byteOffset": 5616,
            "byteLength": 1208,
            "target": 34962
        }
    ],
    "scene": 0,
    "scenes": [
        {
            "nodes": [
                0,
                1,
                2
            ],
            "name": "Project Name"
        }
    ],
    "extensionsUsed": [
        "KHR_texture_transform",
        "KHR_lights_punctual"
    ],
    "extensionsRequired": [
        "KHR_lights_punctual"
    ],
    "buffers": [
        {
            "byteLength": 6824,
            "uri": "scene.bin"
        }
    ]
}